<mxfile host="app.diagrams.net" agent="Mozilla/5.0 (Windows NT 10.0; Win64; x64) AppleWebKit/537.36 (KHTML, like Gecko) Chrome/129.0.0.0 Safari/537.36 Edg/129.0.0.0" version="24.7.17">
  <diagram name="Page-1" id="lDhjbbBVZLznpjhrpK9E">
    <mxGraphModel dx="992" dy="538" grid="1" gridSize="10" guides="1" tooltips="1" connect="1" arrows="1" fold="1" page="1" pageScale="1" pageWidth="850" pageHeight="1100" math="0" shadow="0">
      <root>
        <mxCell id="0" />
        <mxCell id="1" parent="0" />
        <mxCell id="5BSeKgCDkbzmSWMzDrZn-2" value="" style="edgeStyle=orthogonalEdgeStyle;rounded=0;orthogonalLoop=1;jettySize=auto;html=1;labelBackgroundColor=none;fontColor=default;" edge="1" parent="1" source="dFZk6C2PWtwqtnlbQJK6-1" target="5BSeKgCDkbzmSWMzDrZn-1">
          <mxGeometry relative="1" as="geometry" />
        </mxCell>
        <mxCell id="dFZk6C2PWtwqtnlbQJK6-1" value="Start" style="ellipse;whiteSpace=wrap;html=1;labelBackgroundColor=none;" parent="1" vertex="1">
          <mxGeometry x="305" y="50" width="120" height="60" as="geometry" />
        </mxCell>
        <mxCell id="dFZk6C2PWtwqtnlbQJK6-2" value="End" style="ellipse;whiteSpace=wrap;html=1;labelBackgroundColor=none;" parent="1" vertex="1">
          <mxGeometry x="310" y="1130" width="120" height="50" as="geometry" />
        </mxCell>
        <mxCell id="5BSeKgCDkbzmSWMzDrZn-4" value="" style="edgeStyle=orthogonalEdgeStyle;rounded=0;orthogonalLoop=1;jettySize=auto;html=1;labelBackgroundColor=none;fontColor=default;" edge="1" parent="1" source="5BSeKgCDkbzmSWMzDrZn-1" target="5BSeKgCDkbzmSWMzDrZn-3">
          <mxGeometry relative="1" as="geometry" />
        </mxCell>
        <mxCell id="5BSeKgCDkbzmSWMzDrZn-7" value="" style="edgeStyle=orthogonalEdgeStyle;rounded=0;orthogonalLoop=1;jettySize=auto;html=1;labelBackgroundColor=none;fontColor=default;" edge="1" parent="1" source="5BSeKgCDkbzmSWMzDrZn-1" target="5BSeKgCDkbzmSWMzDrZn-5">
          <mxGeometry relative="1" as="geometry" />
        </mxCell>
        <mxCell id="5BSeKgCDkbzmSWMzDrZn-9" style="edgeStyle=orthogonalEdgeStyle;rounded=0;orthogonalLoop=1;jettySize=auto;html=1;entryX=0.5;entryY=0;entryDx=0;entryDy=0;labelBackgroundColor=none;fontColor=default;" edge="1" parent="1" source="5BSeKgCDkbzmSWMzDrZn-1" target="5BSeKgCDkbzmSWMzDrZn-6">
          <mxGeometry relative="1" as="geometry" />
        </mxCell>
        <mxCell id="5BSeKgCDkbzmSWMzDrZn-1" value="Nhap n, a, b, c&amp;nbsp;&lt;div&gt;(n&amp;gt;0)&lt;/div&gt;" style="shape=parallelogram;perimeter=parallelogramPerimeter;whiteSpace=wrap;html=1;fixedSize=1;labelBackgroundColor=none;" vertex="1" parent="1">
          <mxGeometry x="305" y="150" width="120" height="60" as="geometry" />
        </mxCell>
        <mxCell id="5BSeKgCDkbzmSWMzDrZn-3" value="gt_a = |n-a|" style="rounded=0;whiteSpace=wrap;html=1;labelBackgroundColor=none;" vertex="1" parent="1">
          <mxGeometry x="305" y="250" width="120" height="60" as="geometry" />
        </mxCell>
        <mxCell id="5BSeKgCDkbzmSWMzDrZn-5" value="gt_b = |n-b|" style="rounded=0;whiteSpace=wrap;html=1;labelBackgroundColor=none;" vertex="1" parent="1">
          <mxGeometry x="305" y="350" width="120" height="60" as="geometry" />
        </mxCell>
        <mxCell id="5BSeKgCDkbzmSWMzDrZn-13" value="" style="edgeStyle=orthogonalEdgeStyle;rounded=0;orthogonalLoop=1;jettySize=auto;html=1;" edge="1" parent="1" source="5BSeKgCDkbzmSWMzDrZn-6" target="5BSeKgCDkbzmSWMzDrZn-11">
          <mxGeometry relative="1" as="geometry" />
        </mxCell>
        <mxCell id="5BSeKgCDkbzmSWMzDrZn-6" value="gt_c = |n-c|" style="rounded=0;whiteSpace=wrap;html=1;labelBackgroundColor=none;" vertex="1" parent="1">
          <mxGeometry x="305" y="450" width="120" height="60" as="geometry" />
        </mxCell>
        <mxCell id="5BSeKgCDkbzmSWMzDrZn-15" value="" style="edgeStyle=orthogonalEdgeStyle;rounded=0;orthogonalLoop=1;jettySize=auto;html=1;" edge="1" parent="1" source="5BSeKgCDkbzmSWMzDrZn-11">
          <mxGeometry relative="1" as="geometry">
            <mxPoint x="220" y="595" as="targetPoint" />
          </mxGeometry>
        </mxCell>
        <mxCell id="5BSeKgCDkbzmSWMzDrZn-18" value="" style="edgeStyle=orthogonalEdgeStyle;rounded=0;orthogonalLoop=1;jettySize=auto;html=1;" edge="1" parent="1" source="5BSeKgCDkbzmSWMzDrZn-11" target="5BSeKgCDkbzmSWMzDrZn-17">
          <mxGeometry relative="1" as="geometry" />
        </mxCell>
        <mxCell id="5BSeKgCDkbzmSWMzDrZn-11" value="gt_a &amp;lt; gt_b va&amp;nbsp;&lt;div&gt;gt_a &amp;lt; gt_c&lt;/div&gt;" style="html=1;whiteSpace=wrap;aspect=fixed;shape=isoRectangle;" vertex="1" parent="1">
          <mxGeometry x="290" y="550" width="150" height="90" as="geometry" />
        </mxCell>
        <mxCell id="5BSeKgCDkbzmSWMzDrZn-16" value="Dung" style="text;html=1;align=center;verticalAlign=middle;whiteSpace=wrap;rounded=0;" vertex="1" parent="1">
          <mxGeometry x="230" y="565" width="60" height="30" as="geometry" />
        </mxCell>
        <mxCell id="5BSeKgCDkbzmSWMzDrZn-22" value="" style="edgeStyle=orthogonalEdgeStyle;rounded=0;orthogonalLoop=1;jettySize=auto;html=1;" edge="1" parent="1" source="5BSeKgCDkbzmSWMzDrZn-17">
          <mxGeometry relative="1" as="geometry">
            <mxPoint x="220" y="744.9999999999998" as="targetPoint" />
          </mxGeometry>
        </mxCell>
        <mxCell id="5BSeKgCDkbzmSWMzDrZn-25" value="" style="edgeStyle=orthogonalEdgeStyle;rounded=0;orthogonalLoop=1;jettySize=auto;html=1;" edge="1" parent="1" source="5BSeKgCDkbzmSWMzDrZn-17" target="5BSeKgCDkbzmSWMzDrZn-24">
          <mxGeometry relative="1" as="geometry" />
        </mxCell>
        <mxCell id="5BSeKgCDkbzmSWMzDrZn-17" value="gt_b &amp;lt; gt_ a va&lt;div&gt;gt_b &amp;lt; gt_c&lt;/div&gt;" style="html=1;whiteSpace=wrap;aspect=fixed;shape=isoRectangle;" vertex="1" parent="1">
          <mxGeometry x="290" y="700" width="150" height="90" as="geometry" />
        </mxCell>
        <mxCell id="5BSeKgCDkbzmSWMzDrZn-20" value="Sai" style="text;html=1;align=center;verticalAlign=middle;whiteSpace=wrap;rounded=0;" vertex="1" parent="1">
          <mxGeometry x="350" y="650" width="60" height="30" as="geometry" />
        </mxCell>
        <mxCell id="5BSeKgCDkbzmSWMzDrZn-23" value="Dung" style="text;html=1;align=center;verticalAlign=middle;whiteSpace=wrap;rounded=0;" vertex="1" parent="1">
          <mxGeometry x="230" y="720" width="60" height="30" as="geometry" />
        </mxCell>
        <mxCell id="5BSeKgCDkbzmSWMzDrZn-29" value="" style="edgeStyle=orthogonalEdgeStyle;rounded=0;orthogonalLoop=1;jettySize=auto;html=1;" edge="1" parent="1" source="5BSeKgCDkbzmSWMzDrZn-24">
          <mxGeometry relative="1" as="geometry">
            <mxPoint x="220" y="905.0000000000002" as="targetPoint" />
          </mxGeometry>
        </mxCell>
        <mxCell id="5BSeKgCDkbzmSWMzDrZn-31" value="" style="edgeStyle=orthogonalEdgeStyle;rounded=0;orthogonalLoop=1;jettySize=auto;html=1;" edge="1" parent="1" source="5BSeKgCDkbzmSWMzDrZn-24" target="5BSeKgCDkbzmSWMzDrZn-30">
          <mxGeometry relative="1" as="geometry" />
        </mxCell>
        <mxCell id="5BSeKgCDkbzmSWMzDrZn-24" value="gt_c &amp;lt; gt_a va&lt;div&gt;gt_c &amp;lt; gt_b&lt;/div&gt;" style="html=1;whiteSpace=wrap;aspect=fixed;shape=isoRectangle;" vertex="1" parent="1">
          <mxGeometry x="290" y="860" width="150" height="90" as="geometry" />
        </mxCell>
        <mxCell id="5BSeKgCDkbzmSWMzDrZn-26" value="Sai" style="text;html=1;align=center;verticalAlign=middle;whiteSpace=wrap;rounded=0;" vertex="1" parent="1">
          <mxGeometry x="350" y="810" width="60" height="30" as="geometry" />
        </mxCell>
        <mxCell id="5BSeKgCDkbzmSWMzDrZn-35" value="" style="edgeStyle=orthogonalEdgeStyle;rounded=0;orthogonalLoop=1;jettySize=auto;html=1;" edge="1" parent="1" source="5BSeKgCDkbzmSWMzDrZn-30">
          <mxGeometry relative="1" as="geometry">
            <mxPoint x="585" y="1000.0000000000002" as="targetPoint" />
          </mxGeometry>
        </mxCell>
        <mxCell id="5BSeKgCDkbzmSWMzDrZn-39" value="" style="edgeStyle=orthogonalEdgeStyle;rounded=0;orthogonalLoop=1;jettySize=auto;html=1;" edge="1" parent="1" source="5BSeKgCDkbzmSWMzDrZn-30" target="5BSeKgCDkbzmSWMzDrZn-37">
          <mxGeometry relative="1" as="geometry" />
        </mxCell>
        <mxCell id="5BSeKgCDkbzmSWMzDrZn-30" value="gt_a = gt_b va&amp;nbsp;&lt;div&gt;gt_a &amp;lt; gt_c&lt;/div&gt;" style="html=1;whiteSpace=wrap;aspect=fixed;shape=isoRectangle;" vertex="1" parent="1">
          <mxGeometry x="510" y="860" width="150" height="90" as="geometry" />
        </mxCell>
        <mxCell id="5BSeKgCDkbzmSWMzDrZn-32" value="Dung" style="text;html=1;align=center;verticalAlign=middle;whiteSpace=wrap;rounded=0;" vertex="1" parent="1">
          <mxGeometry x="230" y="880" width="60" height="30" as="geometry" />
        </mxCell>
        <mxCell id="5BSeKgCDkbzmSWMzDrZn-33" value="Sai" style="text;html=1;align=center;verticalAlign=middle;whiteSpace=wrap;rounded=0;" vertex="1" parent="1">
          <mxGeometry x="440" y="880" width="60" height="30" as="geometry" />
        </mxCell>
        <mxCell id="5BSeKgCDkbzmSWMzDrZn-36" value="Dung" style="text;html=1;align=center;verticalAlign=middle;whiteSpace=wrap;rounded=0;" vertex="1" parent="1">
          <mxGeometry x="580" y="950" width="60" height="30" as="geometry" />
        </mxCell>
        <mxCell id="5BSeKgCDkbzmSWMzDrZn-42" value="" style="edgeStyle=orthogonalEdgeStyle;rounded=0;orthogonalLoop=1;jettySize=auto;html=1;" edge="1" parent="1" source="5BSeKgCDkbzmSWMzDrZn-37">
          <mxGeometry relative="1" as="geometry">
            <mxPoint x="740" y="745" as="targetPoint" />
          </mxGeometry>
        </mxCell>
        <mxCell id="5BSeKgCDkbzmSWMzDrZn-43" value="" style="edgeStyle=orthogonalEdgeStyle;rounded=0;orthogonalLoop=1;jettySize=auto;html=1;" edge="1" parent="1" source="5BSeKgCDkbzmSWMzDrZn-37" target="5BSeKgCDkbzmSWMzDrZn-38">
          <mxGeometry relative="1" as="geometry" />
        </mxCell>
        <mxCell id="5BSeKgCDkbzmSWMzDrZn-37" value="gt_a = gt_c va&lt;div&gt;gt_a &amp;lt; gt_b&lt;/div&gt;" style="html=1;whiteSpace=wrap;aspect=fixed;shape=isoRectangle;" vertex="1" parent="1">
          <mxGeometry x="510" y="700" width="150" height="90" as="geometry" />
        </mxCell>
        <mxCell id="5BSeKgCDkbzmSWMzDrZn-48" value="" style="edgeStyle=orthogonalEdgeStyle;rounded=0;orthogonalLoop=1;jettySize=auto;html=1;" edge="1" parent="1" source="5BSeKgCDkbzmSWMzDrZn-38">
          <mxGeometry relative="1" as="geometry">
            <mxPoint x="585" y="460" as="targetPoint" />
          </mxGeometry>
        </mxCell>
        <mxCell id="5BSeKgCDkbzmSWMzDrZn-50" value="" style="edgeStyle=orthogonalEdgeStyle;rounded=0;orthogonalLoop=1;jettySize=auto;html=1;entryX=0;entryY=0.5;entryDx=0;entryDy=0;" edge="1" parent="1" source="5BSeKgCDkbzmSWMzDrZn-38" target="5BSeKgCDkbzmSWMzDrZn-63">
          <mxGeometry relative="1" as="geometry">
            <mxPoint x="730" y="595" as="targetPoint" />
          </mxGeometry>
        </mxCell>
        <mxCell id="5BSeKgCDkbzmSWMzDrZn-38" value="gt_b = gt_c va&lt;div&gt;gt_b &amp;lt; gt_a&lt;/div&gt;" style="html=1;whiteSpace=wrap;aspect=fixed;shape=isoRectangle;" vertex="1" parent="1">
          <mxGeometry x="510" y="550" width="150" height="90" as="geometry" />
        </mxCell>
        <mxCell id="5BSeKgCDkbzmSWMzDrZn-40" value="Sai" style="text;html=1;align=center;verticalAlign=middle;whiteSpace=wrap;rounded=0;" vertex="1" parent="1">
          <mxGeometry x="585" y="810" width="60" height="30" as="geometry" />
        </mxCell>
        <mxCell id="5BSeKgCDkbzmSWMzDrZn-44" value="Dung" style="text;html=1;align=center;verticalAlign=middle;whiteSpace=wrap;rounded=0;" vertex="1" parent="1">
          <mxGeometry x="670" y="715" width="60" height="30" as="geometry" />
        </mxCell>
        <mxCell id="5BSeKgCDkbzmSWMzDrZn-45" value="Sai" style="text;html=1;align=center;verticalAlign=middle;whiteSpace=wrap;rounded=0;" vertex="1" parent="1">
          <mxGeometry x="570" y="650" width="60" height="30" as="geometry" />
        </mxCell>
        <mxCell id="5BSeKgCDkbzmSWMzDrZn-49" value="Dung" style="text;html=1;align=center;verticalAlign=middle;whiteSpace=wrap;rounded=0;" vertex="1" parent="1">
          <mxGeometry x="670" y="565" width="60" height="30" as="geometry" />
        </mxCell>
        <mxCell id="5BSeKgCDkbzmSWMzDrZn-51" value="Sai" style="text;html=1;align=center;verticalAlign=middle;whiteSpace=wrap;rounded=0;" vertex="1" parent="1">
          <mxGeometry x="570" y="490" width="60" height="30" as="geometry" />
        </mxCell>
        <mxCell id="5BSeKgCDkbzmSWMzDrZn-64" style="edgeStyle=orthogonalEdgeStyle;rounded=0;orthogonalLoop=1;jettySize=auto;html=1;exitX=0;exitY=0.5;exitDx=0;exitDy=0;entryX=0;entryY=0.5;entryDx=0;entryDy=0;" edge="1" parent="1" source="5BSeKgCDkbzmSWMzDrZn-56" target="dFZk6C2PWtwqtnlbQJK6-2">
          <mxGeometry relative="1" as="geometry">
            <mxPoint x="250" y="660" as="sourcePoint" />
            <mxPoint x="290" y="1080" as="targetPoint" />
            <Array as="points">
              <mxPoint x="60" y="595" />
              <mxPoint x="60" y="1155" />
            </Array>
          </mxGeometry>
        </mxCell>
        <mxCell id="5BSeKgCDkbzmSWMzDrZn-56" value="In ra a gan n nhat" style="shape=parallelogram;perimeter=parallelogramPerimeter;whiteSpace=wrap;html=1;fixedSize=1;" vertex="1" parent="1">
          <mxGeometry x="100" y="565" width="130" height="60" as="geometry" />
        </mxCell>
        <mxCell id="5BSeKgCDkbzmSWMzDrZn-71" style="edgeStyle=orthogonalEdgeStyle;rounded=0;orthogonalLoop=1;jettySize=auto;html=1;exitX=0;exitY=0.5;exitDx=0;exitDy=0;entryX=0;entryY=0.5;entryDx=0;entryDy=0;" edge="1" parent="1" source="5BSeKgCDkbzmSWMzDrZn-57" target="dFZk6C2PWtwqtnlbQJK6-2">
          <mxGeometry relative="1" as="geometry">
            <mxPoint x="180" y="1040" as="targetPoint" />
            <Array as="points">
              <mxPoint x="60" y="745" />
              <mxPoint x="60" y="1155" />
            </Array>
          </mxGeometry>
        </mxCell>
        <mxCell id="5BSeKgCDkbzmSWMzDrZn-57" value="In ra b gan n nhat" style="shape=parallelogram;perimeter=parallelogramPerimeter;whiteSpace=wrap;html=1;fixedSize=1;" vertex="1" parent="1">
          <mxGeometry x="100" y="715" width="130" height="60" as="geometry" />
        </mxCell>
        <mxCell id="5BSeKgCDkbzmSWMzDrZn-58" value="In ra c gan n nhat" style="shape=parallelogram;perimeter=parallelogramPerimeter;whiteSpace=wrap;html=1;fixedSize=1;" vertex="1" parent="1">
          <mxGeometry x="100" y="875" width="130" height="60" as="geometry" />
        </mxCell>
        <mxCell id="5BSeKgCDkbzmSWMzDrZn-59" value="In ra a va b&amp;nbsp;&lt;div&gt;&lt;span style=&quot;background-color: initial;&quot;&gt;gan&lt;/span&gt;&lt;span style=&quot;background-color: initial;&quot;&gt;&amp;nbsp;n nhat&lt;/span&gt;&lt;/div&gt;" style="shape=parallelogram;perimeter=parallelogramPerimeter;whiteSpace=wrap;html=1;fixedSize=1;" vertex="1" parent="1">
          <mxGeometry x="520" y="1000" width="130" height="60" as="geometry" />
        </mxCell>
        <mxCell id="5BSeKgCDkbzmSWMzDrZn-60" value="In ra a va c&amp;nbsp;&lt;div&gt;gan n nhat&lt;/div&gt;" style="shape=parallelogram;perimeter=parallelogramPerimeter;whiteSpace=wrap;html=1;fixedSize=1;" vertex="1" parent="1">
          <mxGeometry x="730" y="715" width="130" height="60" as="geometry" />
        </mxCell>
        <mxCell id="5BSeKgCDkbzmSWMzDrZn-62" value="In ra a, b, c deu&amp;nbsp;&lt;div&gt;gan n&lt;/div&gt;" style="shape=parallelogram;perimeter=parallelogramPerimeter;whiteSpace=wrap;html=1;fixedSize=1;" vertex="1" parent="1">
          <mxGeometry x="520" y="400" width="130" height="60" as="geometry" />
        </mxCell>
        <mxCell id="5BSeKgCDkbzmSWMzDrZn-63" value="In ra b va c&amp;nbsp;&lt;div&gt;gan n nhat&lt;/div&gt;" style="shape=parallelogram;perimeter=parallelogramPerimeter;whiteSpace=wrap;html=1;fixedSize=1;" vertex="1" parent="1">
          <mxGeometry x="730" y="565" width="130" height="60" as="geometry" />
        </mxCell>
        <mxCell id="5BSeKgCDkbzmSWMzDrZn-67" value="" style="endArrow=classic;html=1;rounded=0;entryX=1;entryY=0.5;entryDx=0;entryDy=0;exitX=0.5;exitY=1;exitDx=0;exitDy=0;" edge="1" parent="1" source="5BSeKgCDkbzmSWMzDrZn-59" target="dFZk6C2PWtwqtnlbQJK6-2">
          <mxGeometry width="50" height="50" relative="1" as="geometry">
            <mxPoint x="640" y="1190" as="sourcePoint" />
            <mxPoint x="580" y="1120" as="targetPoint" />
            <Array as="points">
              <mxPoint x="585" y="1155" />
            </Array>
          </mxGeometry>
        </mxCell>
        <mxCell id="5BSeKgCDkbzmSWMzDrZn-68" value="" style="endArrow=classic;html=1;rounded=0;exitX=1;exitY=0.5;exitDx=0;exitDy=0;entryX=1;entryY=0.5;entryDx=0;entryDy=0;" edge="1" parent="1" source="5BSeKgCDkbzmSWMzDrZn-60" target="dFZk6C2PWtwqtnlbQJK6-2">
          <mxGeometry width="50" height="50" relative="1" as="geometry">
            <mxPoint x="570" y="980" as="sourcePoint" />
            <mxPoint x="620" y="930" as="targetPoint" />
            <Array as="points">
              <mxPoint x="900" y="745" />
              <mxPoint x="900" y="1155" />
              <mxPoint x="790" y="1155" />
            </Array>
          </mxGeometry>
        </mxCell>
        <mxCell id="5BSeKgCDkbzmSWMzDrZn-69" value="" style="endArrow=classic;html=1;rounded=0;entryX=1;entryY=0.5;entryDx=0;entryDy=0;" edge="1" parent="1" source="5BSeKgCDkbzmSWMzDrZn-62" target="dFZk6C2PWtwqtnlbQJK6-2">
          <mxGeometry width="50" height="50" relative="1" as="geometry">
            <mxPoint x="570" y="660" as="sourcePoint" />
            <mxPoint x="620" y="610" as="targetPoint" />
            <Array as="points">
              <mxPoint x="900" y="430" />
              <mxPoint x="900" y="595" />
              <mxPoint x="900" y="1155" />
            </Array>
          </mxGeometry>
        </mxCell>
        <mxCell id="5BSeKgCDkbzmSWMzDrZn-70" value="" style="endArrow=classic;html=1;rounded=0;exitX=1;exitY=0.5;exitDx=0;exitDy=0;entryX=1;entryY=0.5;entryDx=0;entryDy=0;" edge="1" parent="1" source="5BSeKgCDkbzmSWMzDrZn-63" target="dFZk6C2PWtwqtnlbQJK6-2">
          <mxGeometry width="50" height="50" relative="1" as="geometry">
            <mxPoint x="690" y="390" as="sourcePoint" />
            <mxPoint x="480" y="1115" as="targetPoint" />
            <Array as="points">
              <mxPoint x="900" y="595" />
              <mxPoint x="900" y="1155" />
            </Array>
          </mxGeometry>
        </mxCell>
        <mxCell id="5BSeKgCDkbzmSWMzDrZn-72" value="" style="endArrow=classic;html=1;rounded=0;exitX=0;exitY=0.5;exitDx=0;exitDy=0;entryX=0;entryY=0.5;entryDx=0;entryDy=0;" edge="1" parent="1" source="5BSeKgCDkbzmSWMzDrZn-58" target="dFZk6C2PWtwqtnlbQJK6-2">
          <mxGeometry width="50" height="50" relative="1" as="geometry">
            <mxPoint x="570" y="980" as="sourcePoint" />
            <mxPoint x="620" y="930" as="targetPoint" />
            <Array as="points">
              <mxPoint x="60" y="905" />
              <mxPoint x="60" y="1155" />
            </Array>
          </mxGeometry>
        </mxCell>
      </root>
    </mxGraphModel>
  </diagram>
</mxfile>
